<svg xmlns="http://www.w3.org/2000/svg" width="206.391" height="209.032" viewBox="0 0 206.391 209.032">
  <path id="Path_17" data-name="Path 17" d="M702.135-1148.15l-29.114.02H623.805l7.916-16.053a18.55,18.55,0,0,1,16.607-10.428h11.615l-11.53-23.373-12.677-25.666-14.566-29.492-10.672-21.6-11.55-23.393-11.531,23.354-14.566,29.493-34.9,70.7H582.4l12.676-25.684L588.6-1213.4a19.21,19.21,0,0,1,0-16.964l10.363-21.011,10.672,21.6,14.547,29.493-12.677,25.684-1.871,3.789-11.206,22.692H548l-23.119.019H495.744l13.077-26.48L558.3-1274.786l14.547-29.493,11.55-23.353,14.547-29.493,14.567,29.493,11.55,23.392,10.672,21.605,14.566,29.493L662.98-1227.5v.02l26.1,52.845Z" transform="translate(-495.744 1357.125)" fill="#fff"/>
</svg>
