<?xml version="1.0" encoding="UTF-8"?> <!-- Generator: Adobe Illustrator 21.0.0, SVG Export Plug-In . SVG Version: 6.00 Build 0) --> <svg xmlns="http://www.w3.org/2000/svg" xmlns:xlink="http://www.w3.org/1999/xlink" id="Capa_1" x="0px" y="0px" viewBox="0 0 174.4 31.3" style="enable-background:new 0 0 174.4 31.3;" xml:space="preserve"> <style type="text/css"> .st0{fill:#82262A;} </style> <g> <path class="st0" d="M15.1,30.9c-1.4,0-2.8-0.2-4-0.5c-1.3-0.3-2.4-0.8-3.5-1.5c-1.1-0.7-2.1-1.6-2.9-2.7c-0.8-1.1-1.6-2.4-2.1-3.9 L7,20.5c0.7,1.8,1.7,3.1,3.1,4c1.4,0.9,3.1,1.4,4.9,1.4s3.5-0.4,4.8-1.2c1.3-0.8,1.9-1.9,1.9-3.2c0-1.2-0.5-2.1-1.4-2.6 c-0.9-0.5-2.1-0.9-3.4-1.2c-1.4-0.3-2.9-0.5-4.5-0.7c-1.6-0.2-3.1-0.6-4.5-1.1c-1.4-0.5-2.5-1.3-3.4-2.4s-1.4-2.6-1.4-4.6 c0-1.4,0.3-2.7,1-3.8c0.7-1.1,1.6-2,2.7-2.7c1.1-0.7,2.3-1.3,3.7-1.6c1.4-0.3,2.8-0.5,4.2-0.5c1.6,0,3.1,0.1,4.3,0.5 c1.2,0.3,2.3,0.7,3.2,1.3s1.7,1.1,2.4,1.8c0.7,0.7,1.3,1.4,1.9,2.2l-3.7,3c-0.9-1-2-1.8-3.3-2.5c-1.2-0.7-2.8-1-4.6-1 c-2,0-3.6,0.3-4.8,0.8C8.9,6.9,8.3,7.8,8.3,9c0,0.8,0.3,1.4,0.8,1.8c0.5,0.4,1.3,0.8,2.1,1.1c0.9,0.3,1.9,0.5,3,0.7 c1.1,0.2,2.3,0.4,3.4,0.6c1.2,0.2,2.3,0.5,3.4,0.8c1.1,0.3,2.1,0.8,3,1.4c0.9,0.6,1.6,1.4,2.1,2.3c0.5,0.9,0.8,2.1,0.8,3.5 c0,1.6-0.4,3-1.1,4.2c-0.7,1.2-1.6,2.2-2.8,3s-2.4,1.4-3.8,1.8C17.9,30.7,16.5,30.9,15.1,30.9"></path> <path class="st0" d="M44.4,25.8c1.1,0,2.2-0.2,3.2-0.7c1-0.5,1.8-1.1,2.5-1.9c0.7-0.8,1.3-1.8,1.6-2.9c0.4-1.1,0.6-2.3,0.6-3.5V0.6 h5v29.7h-5v-2.4c-1,0.9-2.2,1.6-3.6,2.1c-1.4,0.5-2.8,0.8-4.3,0.8c-1.9,0-3.5-0.3-5-1c-1.5-0.7-2.7-1.6-3.8-2.7 c-1.1-1.1-1.9-2.4-2.6-3.9c-0.7-1.5-1.1-3-1.3-4.6c0-0.2,0-0.4,0-0.6c0-0.2,0-0.4,0-0.6c0-0.3,0-0.6,0-0.9c0-0.4,0-0.8,0-1.4V7.4 V0.6h5v16.1c0,1.3,0.2,2.5,0.6,3.6c0.4,1.1,0.9,2.1,1.6,2.9c0.7,0.8,1.5,1.5,2.4,1.9C42.3,25.6,43.3,25.8,44.4,25.8"></path> <path class="st0" d="M128.2,30.8c-2,0-3.8-0.4-5.4-1.2c-1.6-0.8-3-1.8-4.1-3.2c-1.1-1.3-2-2.8-2.6-4.5c-0.6-1.7-0.9-3.4-0.9-5.2 v-2.1c0-1.8,0.3-3.6,0.9-5.3c0.6-1.7,1.5-3.2,2.6-4.5s2.5-2.4,4.1-3.2c1.6-0.8,3.3-1.2,5.3-1.2c1.6,0,3,0.3,4.3,0.8 c1.3,0.6,2.5,1.3,3.5,2.1V1.1h5v29.2h-5l0-2.4c-1,0.9-2.2,1.6-3.5,2.1C131.1,30.5,129.7,30.8,128.2,30.8 M128.2,25.8 c1.2,0,2.4-0.2,3.3-0.8c1-0.5,1.8-1.2,2.4-2c0.7-0.8,1.2-1.8,1.5-2.9s0.5-2.2,0.5-3.4v-2.1c0-1.3-0.2-2.5-0.6-3.6s-0.9-2.1-1.6-2.9 c-0.7-0.8-1.5-1.4-2.5-1.9s-2-0.7-3.1-0.7c-1.1,0-2.2,0.2-3.1,0.7c-1,0.5-1.8,1.1-2.5,1.9s-1.3,1.8-1.7,2.9 c-0.4,1.1-0.6,2.3-0.6,3.6v2.1c0,1.3,0.2,2.5,0.6,3.6c0.4,1.1,1,2.1,1.7,2.9c0.7,0.8,1.6,1.5,2.5,1.9 C126,25.6,127.1,25.8,128.2,25.8"></path> <path class="st0" d="M159.6,30.8c-1.9,0-3.7-0.4-5.3-1.2c-1.6-0.8-2.9-1.8-4-3.2c-1.1-1.3-2-2.8-2.6-4.5c-0.6-1.7-0.9-3.4-0.9-5.2 v-2.1c0-1.8,0.3-3.5,0.9-5.2c0.6-1.7,1.4-3.2,2.5-4.5s2.4-2.4,4-3.2c1.6-0.8,3.3-1.2,5.3-1.2c1.2,0,2.4,0.2,3.6,0.5 c1.2,0.3,2.3,0.8,3.4,1.6s2,1.6,3,2.7c0.9,1.1,1.7,2.4,2.4,4l-4.4,2.4c-0.9-2.4-2.1-4-3.3-4.9c-1.3-0.9-2.8-1.3-4.5-1.3 c-1.1,0-2.2,0.2-3.1,0.7c-0.9,0.5-1.8,1.1-2.5,1.9c-0.7,0.8-1.3,1.8-1.6,2.9s-0.6,2.3-0.6,3.6v2.1c0,1.2,0.2,2.4,0.6,3.5 c0.4,1.1,0.9,2.1,1.6,2.9c0.7,0.8,1.5,1.5,2.5,1.9c1,0.5,2,0.7,3.1,0.7c1.7,0,3.2-0.5,4.5-1.4c1.3-0.9,2.4-2.5,3.3-4.8l4.4,2.4 c-0.7,1.6-1.5,3-2.4,4.1s-1.9,2-3,2.7c-1.1,0.7-2.2,1.2-3.4,1.5C162,30.6,160.8,30.8,159.6,30.8"></path> <path class="st0" d="M109.6,9.4c-0.5-1.7-1.3-3.2-2.3-4.5c-1-1.3-2.4-2.3-4-3.1s-3.5-1.2-5.8-1.2c-2.1,0-4.1,0.5-5.9,1.5 s-3.3,2.4-4.5,4c-1.1-1.7-2.5-3.1-4.1-4c-1.6-1-3.7-1.5-6.2-1.5c-1,0-1.9,0.1-2.9,0.4c-1.1,0.2-2.1,0.5-3,0.9C69.3,2.7,68,3.7,67,5 c-1,1.3-1.8,2.8-2.3,4.5c-0.5,1.7-0.7,3.5-0.7,5.3v0.9l0,0.1v15h0v0.1h5V14.8c0-1.3,0.2-2.5,0.6-3.6c0.4-1.1,0.9-2.1,1.6-2.9 c0.7-0.8,1.5-1.5,2.5-1.9c0.9-0.5,2-0.7,3.1-0.7c1.1,0,2.2,0.2,3.2,0.7c1,0.5,1.8,1.1,2.5,1.9s1.3,1.8,1.6,2.9 c0,0.1,0.1,0.3,0.1,0.4c0.3,1,0.4,2,0.4,3.1v16.1h0v0.1h4.9V14.8c0-0.1,0-0.2,0-0.4c0-1.2,0.2-2.3,0.6-3.3c0.4-1.1,0.9-2.1,1.6-2.9 c0.7-0.8,1.6-1.5,2.5-1.9c1-0.5,2-0.7,3.2-0.7c1.1,0,2.2,0.2,3.1,0.7c0.9,0.5,1.8,1.1,2.5,1.9c0.7,0.8,1.3,1.8,1.6,2.9 c0.4,1.1,0.6,2.3,0.6,3.6v16.1h5V14.7C110.4,12.8,110.1,11.1,109.6,9.4z"></path> </g> </svg> 